<?xml version="1.0" standalone="no"?>
<!DOCTYPE svg PUBLIC "-//W3C//DTD SVG 20010904//EN"
 "http://www.w3.org/TR/2001/REC-SVG-20010904/DTD/svg10.dtd">
<svg version="1.0" xmlns="http://www.w3.org/2000/svg"
 width="500.000000pt" height="500.000000pt" viewBox="0 0 500.000000 500.000000"
 preserveAspectRatio="xMidYMid meet">
<metadata>
Created by potrace 1.14, written by Peter Selinger 2001-2017
</metadata>
<g transform="translate(0.000000,500.000000) scale(0.100000,-0.100000)"
fill="#000000" stroke="none">
<path d="M2816 4765 c-55 -259 -44 -242 -114 -183 -18 16 -36 28 -41 28 -4 0
-32 -74 -61 -165 -48 -148 -59 -172 -102 -223 -27 -31 -52 -58 -56 -60 -16 -5
-122 211 -167 341 -26 75 -51 137 -56 137 -10 0 -7 8 -65 -235 -26 -110 -48
-202 -50 -204 -7 -8 -98 46 -158 95 -41 34 -79 78 -110 128 -26 42 -50 76 -54
76 -10 0 -120 -124 -171 -192 -24 -32 -46 -58 -50 -58 -4 0 -15 15 -26 33 -10
17 -34 57 -53 87 l-35 54 -61 -121 c-36 -72 -80 -142 -109 -173 l-47 -53 -51
32 c-28 17 -54 31 -59 31 -5 0 -30 -18 -55 -40 -25 -22 -50 -40 -55 -40 -4 0
-42 20 -83 44 -41 24 -89 52 -106 60 l-31 17 -68 -64 c-38 -35 -87 -77 -110
-92 l-41 -27 -56 31 c-68 38 -120 40 -225 7 -41 -13 -111 -27 -155 -30 -109
-9 -141 -16 -124 -26 7 -5 20 -5 29 0 8 4 58 12 110 16 95 8 106 9 115 14 3 1
8 3 13 5 4 1 24 9 44 18 62 28 124 22 191 -18 l58 -35 72 54 c40 29 88 70 106
90 19 20 39 36 44 36 5 0 56 -27 114 -61 l105 -60 53 40 c30 23 57 41 61 41 4
0 29 -14 57 -31 l50 -31 59 63 c45 47 72 88 110 168 l49 106 50 -87 c28 -49
55 -88 59 -88 5 0 36 35 68 78 52 68 148 161 156 151 90 -122 194 -220 271
-254 l56 -25 8 23 c4 12 27 103 51 202 23 99 46 184 50 188 4 5 26 -47 49
-115 39 -112 136 -308 162 -324 6 -4 37 20 69 52 48 50 65 78 105 174 27 63
51 118 54 122 4 4 28 -20 56 -53 53 -65 59 -64 68 11 l6 45 -11 -42 c-6 -24
-14 -43 -17 -43 -3 0 -26 25 -50 55 -24 30 -47 55 -52 55 -4 0 -15 -20 -25
-45 -27 -73 -27 -45 1 44 l26 82 54 -47 c38 -32 56 -42 60 -33 2 8 25 111 50
229 25 118 47 223 49 233 2 9 1 17 -3 17 -3 0 -28 -106 -55 -235z m-1027 -288
c-2 -1 -13 -9 -24 -17 -19 -14 -19 -14 -6 3 7 9 18 17 24 17 6 0 8 -1 6 -3z"/>
<path d="M2890 4995 c0 -3 20 -46 45 -95 l45 -91 -49 26 c-59 29 -61 30 -61 9
0 -8 4 -13 9 -9 5 3 31 -5 56 -17 43 -21 51 -31 97 -122 27 -55 76 -171 108
-258 32 -88 61 -162 64 -165 4 -4 23 2 44 11 20 10 67 29 104 42 79 27 65 39
128 -111 23 -55 46 -105 51 -111 19 -23 164 -75 239 -86 59 -9 94 -9 141 0 56
10 69 18 116 64 l53 52 58 -56 57 -56 105 -6 c58 -4 121 -11 140 -16 34 -9 33
-9 -10 -5 -25 2 -90 7 -145 11 l-100 6 -52 51 -52 51 -58 -55 c-53 -51 -64
-56 -130 -69 -102 -19 -195 -4 -348 55 -14 5 -17 5 -10 -2 6 -6 35 -20 65 -31
30 -12 46 -21 35 -21 -26 -1 -110 41 -110 54 0 6 -13 23 -28 39 -15 16 -25 36
-22 43 2 8 1 12 -4 9 -5 -3 -16 5 -25 19 -16 24 -22 25 -114 26 -86 1 -91 2
-47 9 59 10 158 42 110 36 -16 -2 -64 -9 -106 -16 -73 -13 -80 -12 -134 10
l-56 23 -55 110 c-31 60 -59 106 -63 101 -4 -5 -29 -61 -56 -124 -27 -63 -50
-117 -51 -119 -2 -2 -46 20 -100 48 -53 29 -101 50 -106 49 -6 -2 40 -30 101
-62 l111 -57 21 48 c11 26 28 65 36 86 32 78 22 24 -21 -123 -25 -84 -47 -155
-49 -157 -4 -4 -171 53 -199 68 -13 7 -28 -3 -69 -51 -32 -36 -61 -60 -73 -60
-56 0 -296 -17 -300 -21 -6 -6 2056 -2 2239 4 83 3 137 2 120 -2 -37 -10 247
-6 324 5 35 4 52 4 48 -3 -4 -6 4 -8 20 -5 21 4 23 6 10 14 -16 8 -42 9 -336
9 -84 0 -172 4 -195 9 -22 6 -90 13 -151 16 l-110 7 -52 53 c-28 30 -54 54
-58 54 -4 0 -32 -22 -62 -50 -44 -39 -68 -52 -111 -61 -94 -19 -241 12 -332
70 -41 26 -49 38 -95 145 -27 65 -54 121 -60 124 -5 4 -57 9 -114 12 l-103 5
-53 137 c-37 93 -71 162 -108 215 -30 43 -76 120 -101 171 -41 81 -56 105 -56
87z m172 -302 c13 -21 48 -101 79 -178 l57 -140 95 -5 c52 -3 99 -8 103 -13 4
-4 1 -7 -7 -7 -8 0 -51 -15 -96 -34 l-82 -33 -10 26 c-5 14 -29 82 -54 151
-25 70 -61 158 -81 198 -39 78 -41 94 -4 35z m-46 -314 c14 -28 21 -48 16 -45
-5 3 -15 19 -22 36 -7 16 -18 30 -26 30 -8 0 -11 6 -8 15 9 22 11 20 40 -36z
m114 -164 c16 -9 19 -14 9 -15 -8 0 -24 7 -35 15 -24 18 -7 19 26 0z m1748
-222 c-10 -2 -28 -2 -40 0 -13 2 -5 4 17 4 22 1 32 -1 23 -4z m-85 -10 c-7 -2
-19 -2 -25 0 -7 3 -2 5 12 5 14 0 19 -2 13 -5z"/>
<path d="M2831 4684 c0 -11 3 -14 6 -6 3 7 2 16 -1 19 -3 4 -6 -2 -5 -13z"/>
<path d="M2821 4644 c0 -11 3 -14 6 -6 3 7 2 16 -1 19 -3 4 -6 -2 -5 -13z"/>
<path d="M2811 4604 c0 -11 3 -14 6 -6 3 7 2 16 -1 19 -3 4 -6 -2 -5 -13z"/>
<path d="M2802 4560 c0 -14 2 -19 5 -12 2 6 2 18 0 25 -3 6 -5 1 -5 -13z"/>
<path d="M2791 4514 c0 -11 3 -14 6 -6 3 7 2 16 -1 19 -3 4 -6 -2 -5 -13z"/>
<path d="M4488 3973 c6 -2 18 -2 25 0 6 3 1 5 -13 5 -14 0 -19 -2 -12 -5z"/>
<path d="M1763 3850 c-1 -39 1 -47 6 -26 9 41 31 46 31 7 0 -17 5 -31 10 -31
11 0 12 15 3 48 -4 17 -11 22 -24 19 -12 -3 -19 2 -22 17 -2 11 -4 -4 -4 -34z"/>
<path d="M2020 3850 c0 -27 5 -50 10 -50 6 0 10 23 10 50 0 28 -4 50 -10 50
-5 0 -10 -22 -10 -50z"/>
<path d="M2063 3850 c0 -30 2 -43 4 -27 2 15 2 39 0 55 -2 15 -4 2 -4 -28z"/>
<path d="M2483 3850 c0 -30 2 -43 4 -27 2 15 2 39 0 55 -2 15 -4 2 -4 -28z"/>
<path d="M2523 3850 c0 -30 2 -43 4 -27 2 15 2 39 0 55 -2 15 -4 2 -4 -28z"/>
<path d="M3560 3880 c0 -12 -5 -17 -13 -14 -8 3 -20 -2 -27 -11 -18 -21 -2
-50 29 -51 19 -1 21 4 21 47 0 27 -2 49 -5 49 -3 0 -5 -9 -5 -20z m-3 -36 c8
-22 -15 -44 -26 -25 -10 16 -4 41 10 41 5 0 12 -7 16 -16z"/>
<path d="M4000 3886 c0 -8 -10 -16 -22 -18 -18 -2 -23 -10 -23 -33 0 -25 4
-30 28 -33 26 -3 27 -2 27 47 0 28 -2 51 -5 51 -3 0 -5 -6 -5 -14z m-10 -51
c0 -26 -14 -33 -25 -15 -9 14 1 40 15 40 5 0 10 -11 10 -25z"/>
<path d="M1530 3845 c0 -45 1 -46 28 -43 24 3 27 7 27 43 0 36 -3 40 -27 43
-27 3 -28 2 -28 -43z m43 20 c1 -5 -6 -11 -15 -13 -11 -2 -18 3 -18 13 0 17
30 18 33 0z m7 -40 c0 -8 -9 -15 -20 -15 -11 0 -20 7 -20 15 0 8 9 15 20 15
11 0 20 -7 20 -15z"/>
<path d="M3858 3883 c26 -5 29 -19 5 -27 -14 -4 -14 -4 2 -3 29 3 25 32 -5 34
-22 1 -22 1 -2 -4z"/>
<path d="M1610 3835 c0 -19 5 -35 10 -35 6 0 10 16 10 35 0 19 -4 35 -10 35
-5 0 -10 -16 -10 -35z"/>
<path d="M1651 3830 c1 -27 3 -29 6 -10 2 14 11 30 20 37 13 10 13 12 -6 10
-17 -1 -21 -7 -20 -37z"/>
<path d="M1699 3854 c-16 -19 -1 -48 27 -51 15 -2 14 -1 -3 7 -13 5 -23 16
-23 25 0 9 10 20 23 25 15 6 17 9 6 9 -9 1 -22 -6 -30 -15z"/>
<path d="M1881 3818 c1 -29 3 -46 6 -37 2 10 13 19 24 22 30 8 23 61 -8 65
-22 3 -23 0 -22 -50z m39 17 c0 -16 -6 -25 -15 -25 -9 0 -15 9 -15 25 0 16 6
25 15 25 9 0 15 -9 15 -25z"/>
<path d="M1957 3863 c-13 -13 -7 -54 9 -60 24 -9 46 24 33 48 -10 19 -30 25
-42 12z m33 -28 c0 -16 -6 -25 -15 -25 -9 0 -15 9 -15 25 0 16 6 25 15 25 9 0
15 -9 15 -25z"/>
<path d="M2094 3856 c-11 -28 1 -51 26 -53 22 -1 22 -1 3 4 -31 6 -29 23 2 23
27 0 32 9 13 28 -16 16 -37 15 -44 -2z m41 -6 c3 -5 -3 -10 -14 -10 -12 0 -21
5 -21 10 0 6 6 10 14 10 8 0 18 -4 21 -10z"/>
<path d="M2172 3833 c1 -38 1 -38 5 -5 5 40 25 38 35 -4 6 -27 6 -27 5 6 -2
28 -6 36 -24 38 -21 3 -23 -1 -21 -35z"/>
<path d="M2361 3833 c1 -38 1 -38 9 -9 5 16 15 33 22 37 9 6 6 9 -9 9 -20 0
-23 -5 -22 -37z"/>
<path d="M2414 3856 c-10 -26 0 -51 21 -51 16 0 20 7 20 30 0 33 -30 49 -41
21z m36 -21 c0 -16 -6 -25 -15 -25 -9 0 -15 9 -15 25 0 16 6 25 15 25 9 0 15
-9 15 -25z"/>
<path d="M2553 3835 c0 -22 2 -30 4 -17 2 12 2 30 0 40 -3 9 -5 -1 -4 -23z"/>
<path d="M2580 3836 c0 -20 5 -36 10 -36 6 0 10 14 10 31 0 39 22 34 32 -7 6
-27 6 -27 5 6 -2 30 -6 35 -29 38 -26 3 -28 1 -28 -32z"/>
<path d="M2667 3863 c-15 -15 -7 -55 13 -60 22 -6 26 -19 8 -26 -8 -2 -7 -3 2
-3 11 1 16 15 18 49 3 40 0 47 -16 47 -10 0 -22 -3 -25 -7z m33 -28 c0 -16 -6
-25 -15 -25 -9 0 -15 9 -15 25 0 16 6 25 15 25 9 0 15 -9 15 -25z"/>
<path d="M2800 3858 l25 -11 -25 -6 c-34 -9 -32 -35 3 -39 21 -3 27 1 27 17 0
34 -11 51 -34 50 -19 0 -19 -1 4 -11z m15 -38 c-3 -5 -13 -10 -21 -10 -8 0
-12 5 -9 10 3 6 13 10 21 10 8 0 12 -4 9 -10z"/>
<path d="M2852 3840 c14 -41 26 -46 38 -15 15 39 11 55 -4 20 l-13 -30 -8 28
c-4 15 -11 27 -16 27 -4 0 -3 -14 3 -30z"/>
<path d="M2924 3856 c-11 -28 1 -51 26 -53 22 -1 22 -1 3 4 -31 6 -29 23 2 23
27 0 32 9 13 28 -16 16 -37 15 -44 -2z m41 -6 c3 -5 -3 -10 -14 -10 -12 0 -21
5 -21 10 0 6 6 10 14 10 8 0 18 -4 21 -10z"/>
<path d="M3001 3833 c2 -35 2 -35 6 -8 3 16 10 33 16 37 8 5 6 8 -5 8 -14 0
-18 -8 -17 -37z"/>
<path d="M3070 3858 l25 -11 -25 -6 c-34 -9 -32 -35 3 -39 21 -3 27 1 27 17 0
34 -11 51 -34 50 -19 0 -19 -1 4 -11z m15 -38 c-3 -5 -13 -10 -21 -10 -8 0
-12 5 -9 10 3 6 13 10 21 10 8 0 12 -4 9 -10z"/>
<path d="M3127 3863 c-15 -15 -7 -55 13 -60 22 -6 26 -19 8 -26 -8 -2 -7 -3 2
-3 11 1 16 15 18 49 3 40 0 47 -16 47 -10 0 -22 -3 -25 -7z m33 -28 c0 -16 -6
-25 -15 -25 -9 0 -15 9 -15 25 0 16 6 25 15 25 9 0 15 -9 15 -25z"/>
<path d="M3200 3855 c-18 -22 -1 -49 31 -52 19 -1 20 -1 4 4 -34 9 -41 23 -11
23 21 0 27 4 24 17 -4 24 -32 28 -48 8z m40 -5 c0 -5 -9 -10 -21 -10 -11 0
-17 5 -14 10 3 6 13 10 21 10 8 0 14 -4 14 -10z"/>
<path d="M3311 3838 c5 -18 9 -34 9 -36 0 -2 5 0 10 3 6 3 10 16 10 28 1 19 3
18 14 -8 13 -31 20 -27 30 20 6 29 6 30 -7 6 l-14 -23 -7 23 -6 24 -15 -25
c-10 -18 -14 -20 -15 -8 0 9 -4 19 -9 23 -6 3 -6 -7 0 -27z"/>
<path d="M3413 3835 c0 -22 2 -30 4 -17 2 12 2 30 0 40 -3 9 -5 -1 -4 -23z"/>
<path d="M3441 3830 c1 -34 1 -34 8 -6 9 41 28 43 40 4 8 -29 9 -30 10 -8 1
34 -11 49 -37 47 -18 -1 -22 -7 -21 -37z"/>
<path d="M3597 3864 c-13 -13 -7 -55 9 -61 24 -9 51 23 38 45 -12 19 -36 27
-47 16z m40 -20 c8 -21 -13 -42 -28 -27 -13 13 -5 43 11 43 6 0 13 -7 17 -16z"/>
<path d="M3666 3845 c10 -47 17 -51 30 -20 11 26 13 27 14 8 0 -12 5 -25 10
-28 6 -3 10 -5 10 -3 0 2 4 18 9 36 6 20 6 30 0 27 -5 -4 -9 -14 -9 -23 -1
-12 -5 -10 -15 8 l-15 25 -6 -24 -7 -23 -14 23 c-13 24 -13 23 -7 -6z"/>
<path d="M4050 3858 c25 -11 25 -11 3 -15 -34 -6 -31 -43 2 -41 22 2 26 7 23
33 -2 24 -8 30 -28 32 l-25 3 25 -12z m15 -38 c-3 -5 -10 -10 -16 -10 -5 0 -9
5 -9 10 0 6 7 10 16 10 8 0 12 -4 9 -10z"/>
<path d="M4105 3857 c16 -59 17 -70 4 -79 -12 -8 -11 -9 1 -5 14 3 56 97 45
97 -3 0 -10 -12 -16 -27 l-11 -28 -14 30 c-8 17 -12 22 -9 12z"/>
<path d="M4175 3860 c-8 -14 3 -30 21 -30 23 0 16 -20 -8 -21 -19 -1 -20 -2
-4 -6 10 -3 23 0 30 7 8 8 5 16 -13 30 l-25 18 25 5 c22 4 22 4 2 6 -12 0 -25
-3 -28 -9z"/>
<path d="M2288 3833 c7 -3 16 -2 19 1 4 3 -2 6 -13 5 -11 0 -14 -3 -6 -6z"/>
<path d="M3880 3831 c0 -6 -10 -16 -22 -21 l-23 -9 23 0 c22 -1 41 23 28 36
-3 4 -6 1 -6 -6z"/>
<path d="M2926 3658 c-33 -17 -83 -48 -111 -69 -51 -38 -52 -40 -106 -195 -45
-129 -64 -170 -112 -237 -55 -78 -144 -177 -158 -177 -5 0 -49 58 -100 132 -3
4 -31 13 -62 19 -50 9 -64 7 -116 -12 -48 -17 -69 -32 -110 -80 l-49 -59 -54
61 c-34 40 -73 71 -110 90 l-57 29 -43 -19 c-24 -10 -74 -28 -113 -41 -38 -13
-101 -44 -140 -70 -38 -25 -90 -58 -115 -72 -25 -14 -68 -51 -95 -81 -28 -30
-74 -66 -104 -81 -51 -26 -56 -27 -120 -17 -36 6 -109 16 -162 21 l-97 10
-108 -52 -109 -51 -140 -2 c-105 -1 -162 -7 -230 -23 -49 -12 -114 -25 -144
-29 -34 -5 -56 -14 -59 -23 -4 -12 -2 -13 9 -4 8 6 38 14 68 18 30 4 93 17
140 28 64 16 120 22 221 22 l135 1 104 48 c121 55 145 57 325 28 l119 -20 56
29 c31 15 81 54 111 85 30 31 71 66 90 77 19 11 69 42 110 69 43 27 97 53 125
59 28 6 76 20 108 32 l58 21 50 -24 c31 -14 74 -49 110 -87 l60 -64 41 47 c22
25 48 55 57 65 9 11 40 28 70 39 49 19 68 19 137 5 13 -2 42 -34 73 -79 29
-41 54 -75 57 -75 12 0 104 68 165 122 61 55 69 68 119 181 41 95 64 134 104
176 50 51 154 136 161 129 1 -1 26 -54 54 -116 29 -62 77 -158 107 -212 58
-104 103 -148 231 -229 54 -34 163 -143 223 -224 40 -54 97 -80 196 -92 52 -6
68 -3 118 19 51 23 72 26 166 26 94 0 115 -3 166 -26 60 -27 278 -61 409 -65
48 -2 52 -3 20 -7 -22 -2 -114 4 -205 13 -129 13 -177 22 -222 42 -52 23 -66
25 -165 21 -93 -3 -115 -8 -160 -31 -41 -21 -66 -27 -115 -27 -107 0 -162 21
-231 87 -64 61 -168 138 -224 167 -18 9 -56 16 -85 16 -50 0 -57 3 -113 54
l-60 53 -110 5 c-109 5 -110 5 -175 -28 -95 -48 -143 -83 -191 -139 l-43 -50
45 41 c50 46 142 110 209 144 41 21 53 22 153 17 l108 -7 58 -50 c54 -46 61
-50 111 -50 41 0 65 -7 109 -32 66 -38 149 -99 223 -167 29 -27 62 -51 73 -54
17 -4 17 -5 2 -6 -10 0 -73 38 -140 87 -163 116 -202 138 -267 146 -45 6 -64
15 -107 52 -29 25 -59 44 -65 42 -7 -2 -56 -25 -108 -53 -68 -36 -113 -69
-160 -116 -61 -61 -69 -66 -121 -72 -53 -7 -124 -28 -202 -62 -44 -18 -43 -16
11 55 31 41 29 40 -19 -11 -62 -65 -96 -78 -204 -80 -38 -1 -95 -4 -125 -7
-81 -10 2608 -6 2736 4 l109 8 -75 8 c-41 5 -129 6 -195 3 -165 -8 -412 23
-488 61 -47 24 -63 27 -162 27 -96 0 -117 -4 -166 -26 -66 -29 -120 -28 -211
5 -54 19 -64 28 -150 137 -50 64 -149 175 -218 246 -149 153 -214 251 -291
441 -29 71 -55 132 -58 136 -3 3 -33 -7 -65 -24z m110 -119 c79 -190 139 -283
284 -433 107 -110 118 -126 80 -103 -25 14 -77 51 -116 80 -62 49 -77 67 -132
165 -34 61 -62 113 -62 115 0 2 -22 52 -50 110 l-49 106 -58 -38 c-110 -74
-165 -142 -223 -276 -45 -105 -58 -127 -108 -173 -31 -29 -70 -63 -87 -75 -29
-20 -28 -19 7 23 106 127 144 192 198 348 l53 153 56 43 c62 48 131 87 146 82
6 -1 33 -58 61 -127z m177 -686 c-57 -2 -149 -2 -205 0 -57 1 -11 3 102 3 113
0 159 -2 103 -3z m1625 -210 c-15 -2 -42 -2 -60 0 -18 2 -6 4 27 4 33 0 48 -2
33 -4z"/>
<path d="M1763 2500 c-1 -39 1 -47 6 -26 9 41 31 46 31 7 0 -17 5 -31 10 -31
11 0 12 15 3 48 -4 17 -11 22 -24 19 -12 -3 -19 2 -22 17 -2 11 -4 -4 -4 -34z"/>
<path d="M2020 2500 c0 -27 5 -50 10 -50 6 0 10 23 10 50 0 28 -4 50 -10 50
-5 0 -10 -22 -10 -50z"/>
<path d="M2063 2500 c0 -30 2 -43 4 -27 2 15 2 39 0 55 -2 15 -4 2 -4 -28z"/>
<path d="M2483 2500 c0 -30 2 -43 4 -27 2 15 2 39 0 55 -2 15 -4 2 -4 -28z"/>
<path d="M2523 2500 c0 -30 2 -43 4 -27 2 15 2 39 0 55 -2 15 -4 2 -4 -28z"/>
<path d="M3560 2530 c0 -12 -5 -17 -13 -14 -8 3 -20 -2 -27 -11 -18 -21 -2
-50 29 -51 19 -1 21 4 21 47 0 27 -2 49 -5 49 -3 0 -5 -9 -5 -20z m-3 -36 c8
-22 -15 -44 -26 -25 -10 16 -4 41 10 41 5 0 12 -7 16 -16z"/>
<path d="M4000 2536 c0 -8 -10 -16 -22 -18 -18 -2 -23 -10 -23 -33 0 -25 4
-30 28 -33 26 -3 27 -2 27 47 0 28 -2 51 -5 51 -3 0 -5 -6 -5 -14z m-10 -51
c0 -26 -14 -33 -25 -15 -9 14 1 40 15 40 5 0 10 -11 10 -25z"/>
<path d="M1530 2495 c0 -45 1 -46 28 -43 24 3 27 7 27 43 0 36 -3 40 -27 43
-27 3 -28 2 -28 -43z m43 20 c1 -5 -6 -11 -15 -13 -11 -2 -18 3 -18 13 0 17
30 18 33 0z m7 -40 c0 -8 -9 -15 -20 -15 -11 0 -20 7 -20 15 0 8 9 15 20 15
11 0 20 -7 20 -15z"/>
<path d="M3857 2533 c22 -4 22 -6 8 -40 -9 -20 -13 -38 -10 -41 4 -5 15 18 29
66 7 19 4 22 -21 21 -23 -1 -24 -2 -6 -6z"/>
<path d="M1610 2485 c0 -19 5 -35 10 -35 6 0 10 16 10 35 0 19 -4 35 -10 35
-5 0 -10 -16 -10 -35z"/>
<path d="M1651 2480 c1 -27 3 -29 6 -10 2 14 11 30 20 37 13 10 13 12 -6 10
-17 -1 -21 -7 -20 -37z"/>
<path d="M1699 2504 c-16 -19 -1 -48 27 -51 15 -2 14 -1 -3 7 -13 5 -23 16
-23 25 0 9 10 20 23 25 15 6 17 9 6 9 -9 1 -22 -6 -30 -15z"/>
<path d="M1881 2468 c1 -29 3 -46 6 -37 2 10 13 19 24 22 30 8 23 61 -8 65
-22 3 -23 0 -22 -50z m39 17 c0 -16 -6 -25 -15 -25 -9 0 -15 9 -15 25 0 16 6
25 15 25 9 0 15 -9 15 -25z"/>
<path d="M1957 2513 c-13 -13 -7 -54 9 -60 24 -9 46 24 33 48 -10 19 -30 25
-42 12z m33 -28 c0 -16 -6 -25 -15 -25 -9 0 -15 9 -15 25 0 16 6 25 15 25 9 0
15 -9 15 -25z"/>
<path d="M2094 2506 c-11 -28 1 -51 26 -53 22 -1 22 -1 3 4 -31 6 -29 23 2 23
27 0 32 9 13 28 -16 16 -37 15 -44 -2z m41 -6 c3 -5 -3 -10 -14 -10 -12 0 -21
5 -21 10 0 6 6 10 14 10 8 0 18 -4 21 -10z"/>
<path d="M2172 2483 c1 -38 1 -38 5 -5 5 40 25 38 35 -4 6 -27 6 -27 5 6 -2
28 -6 36 -24 38 -21 3 -23 -1 -21 -35z"/>
<path d="M2361 2483 c1 -38 1 -38 9 -9 5 16 15 33 22 37 9 6 6 9 -9 9 -20 0
-23 -5 -22 -37z"/>
<path d="M2414 2506 c-10 -26 0 -51 21 -51 16 0 20 7 20 30 0 33 -30 49 -41
21z m36 -21 c0 -16 -6 -25 -15 -25 -9 0 -15 9 -15 25 0 16 6 25 15 25 9 0 15
-9 15 -25z"/>
<path d="M2553 2485 c0 -22 2 -30 4 -17 2 12 2 30 0 40 -3 9 -5 -1 -4 -23z"/>
<path d="M2580 2486 c0 -20 5 -36 10 -36 6 0 10 14 10 31 0 39 22 34 32 -7 6
-27 6 -27 5 6 -2 30 -6 35 -29 38 -26 3 -28 1 -28 -32z"/>
<path d="M2667 2513 c-15 -15 -7 -55 13 -60 22 -6 26 -19 8 -26 -8 -2 -7 -3 2
-3 11 1 16 15 18 49 3 40 0 47 -16 47 -10 0 -22 -3 -25 -7z m33 -28 c0 -16 -6
-25 -15 -25 -9 0 -15 9 -15 25 0 16 6 25 15 25 9 0 15 -9 15 -25z"/>
<path d="M2800 2508 l25 -11 -25 -6 c-34 -9 -32 -35 3 -39 21 -3 27 1 27 17 0
34 -11 51 -34 50 -19 0 -19 -1 4 -11z m15 -38 c-3 -5 -13 -10 -21 -10 -8 0
-12 5 -9 10 3 6 13 10 21 10 8 0 12 -4 9 -10z"/>
<path d="M2852 2490 c14 -41 26 -46 38 -15 15 39 11 55 -4 20 l-13 -30 -8 28
c-4 15 -11 27 -16 27 -4 0 -3 -14 3 -30z"/>
<path d="M2924 2506 c-11 -28 1 -51 26 -53 22 -1 22 -1 3 4 -31 6 -29 23 2 23
27 0 32 9 13 28 -16 16 -37 15 -44 -2z m41 -6 c3 -5 -3 -10 -14 -10 -12 0 -21
5 -21 10 0 6 6 10 14 10 8 0 18 -4 21 -10z"/>
<path d="M3001 2483 c2 -35 2 -35 6 -8 3 16 10 33 16 37 8 5 6 8 -5 8 -14 0
-18 -8 -17 -37z"/>
<path d="M3070 2508 l25 -11 -25 -6 c-34 -9 -32 -35 3 -39 21 -3 27 1 27 17 0
34 -11 51 -34 50 -19 0 -19 -1 4 -11z m15 -38 c-3 -5 -13 -10 -21 -10 -8 0
-12 5 -9 10 3 6 13 10 21 10 8 0 12 -4 9 -10z"/>
<path d="M3127 2513 c-15 -15 -7 -55 13 -60 22 -6 26 -19 8 -26 -8 -2 -7 -3 2
-3 11 1 16 15 18 49 3 40 0 47 -16 47 -10 0 -22 -3 -25 -7z m33 -28 c0 -16 -6
-25 -15 -25 -9 0 -15 9 -15 25 0 16 6 25 15 25 9 0 15 -9 15 -25z"/>
<path d="M3200 2505 c-18 -22 -1 -49 31 -52 19 -1 20 -1 4 4 -34 9 -41 23 -11
23 21 0 27 4 24 17 -4 24 -32 28 -48 8z m40 -5 c0 -5 -9 -10 -21 -10 -11 0
-17 5 -14 10 3 6 13 10 21 10 8 0 14 -4 14 -10z"/>
<path d="M3311 2488 c5 -18 9 -34 9 -36 0 -2 5 0 10 3 6 3 10 16 10 28 1 19 3
18 14 -8 13 -31 20 -27 30 20 6 29 6 30 -7 6 l-14 -23 -7 23 -6 24 -15 -25
c-10 -18 -14 -20 -15 -8 0 9 -4 19 -9 23 -6 3 -6 -7 0 -27z"/>
<path d="M3413 2485 c0 -22 2 -30 4 -17 2 12 2 30 0 40 -3 9 -5 -1 -4 -23z"/>
<path d="M3441 2480 c1 -34 1 -34 8 -6 9 41 28 43 40 4 8 -29 9 -30 10 -8 1
34 -11 49 -37 47 -18 -1 -22 -7 -21 -37z"/>
<path d="M3597 2514 c-13 -13 -7 -55 9 -61 24 -9 51 23 38 45 -12 19 -36 27
-47 16z m40 -20 c8 -21 -13 -42 -28 -27 -13 13 -5 43 11 43 6 0 13 -7 17 -16z"/>
<path d="M3666 2495 c10 -47 17 -51 30 -20 11 26 13 27 14 8 0 -12 5 -25 10
-28 6 -3 10 -5 10 -3 0 2 4 18 9 36 6 20 6 30 0 27 -5 -4 -9 -14 -9 -23 -1
-12 -5 -10 -15 8 l-15 25 -6 -24 -7 -23 -14 23 c-13 24 -13 23 -7 -6z"/>
<path d="M4050 2508 c25 -11 25 -11 3 -15 -34 -6 -31 -43 2 -41 22 2 26 7 23
33 -2 24 -8 30 -28 32 l-25 3 25 -12z m15 -38 c-3 -5 -10 -10 -16 -10 -5 0 -9
5 -9 10 0 6 7 10 16 10 8 0 12 -4 9 -10z"/>
<path d="M4105 2507 c16 -59 17 -70 4 -79 -12 -8 -11 -9 1 -5 14 3 56 97 45
97 -3 0 -10 -12 -16 -27 l-11 -28 -14 30 c-8 17 -12 22 -9 12z"/>
<path d="M4175 2510 c-8 -14 3 -30 21 -30 23 0 16 -20 -8 -21 -19 -1 -20 -2
-4 -6 10 -3 23 0 30 7 8 8 5 16 -13 30 l-25 18 25 5 c22 4 22 4 2 6 -12 0 -25
-3 -28 -9z"/>
<path d="M2288 2483 c7 -3 16 -2 19 1 4 3 -2 6 -13 5 -11 0 -14 -3 -6 -6z"/>
<path d="M2915 2326 c-58 -15 -118 -44 -195 -96 -31 -21 -82 -48 -115 -61 -58
-24 -60 -26 -115 -121 -58 -104 -66 -110 -222 -195 l-48 -26 -71 31 c-39 18
-76 29 -82 25 -5 -3 -7 -2 -4 4 3 5 -9 17 -29 26 -43 21 -110 9 -196 -34 -44
-22 -71 -29 -118 -29 -95 0 -245 -64 -333 -141 -83 -72 -144 -104 -217 -114
-41 -5 -68 -17 -105 -44 -77 -58 -140 -82 -235 -92 -196 -18 -323 -39 -392
-64 -94 -34 -181 -54 -237 -55 -42 0 -160 -16 -190 -26 -31 -10 -3 -12 44 -3
28 5 95 14 151 19 70 6 133 20 209 45 67 23 143 40 199 46 50 5 115 14 145 19
30 6 76 10 102 10 61 0 130 27 214 85 51 35 75 45 106 45 53 0 141 46 218 113
79 68 227 127 321 127 43 0 76 7 117 26 32 14 82 32 110 39 52 12 53 12 145
-33 55 -27 107 -45 128 -45 19 0 78 16 130 35 l94 36 56 78 c38 54 64 80 85
87 17 5 73 29 125 53 57 25 131 50 183 60 83 16 91 16 143 0 31 -10 80 -32
110 -51 52 -30 62 -44 166 -216 164 -272 211 -319 390 -390 28 -11 76 -37 107
-59 67 -46 113 -54 394 -70 123 -7 213 -17 260 -29 40 -11 141 -25 224 -32 84
-7 151 -15 148 -17 -9 -9 -321 20 -380 35 -43 11 -136 18 -325 22 -249 6 -268
8 -308 29 -24 13 -80 32 -125 43 -127 32 -237 88 -311 158 -50 49 -83 70 -167
107 -57 25 -133 52 -168 59 -60 13 -67 13 -127 -10 -148 -56 -257 -116 -324
-180 -40 -38 -98 -79 -154 -108 -48 -26 -119 -69 -156 -97 -38 -27 -80 -52
-94 -56 -14 -3 -141 -10 -283 -14 -216 -7 -186 -8 187 -4 245 2 716 4 1047 4
l602 0 4 38 4 37 1 -37 2 -38 498 0 c275 0 552 -2 618 -4 86 -3 99 -2 49 3
l-70 7 75 4 c41 2 59 5 40 6 -19 2 -123 11 -230 20 -107 9 -227 25 -267 35
-40 10 -141 23 -230 29 -315 20 -359 29 -438 85 -33 23 -84 54 -113 69 -90 45
-147 93 -204 169 -70 93 -173 267 -229 386 -49 106 -111 171 -211 222 -64 32
-63 32 -133 15z m118 -22 c29 -15 76 -45 105 -68 47 -36 60 -56 108 -156 106
-220 247 -430 328 -489 26 -18 46 -34 46 -36 0 -2 -14 2 -31 8 -53 20 -145
136 -264 332 -106 174 -118 190 -168 220 -84 51 -149 69 -222 61 -81 -8 -157
-30 -225 -66 -30 -15 -80 -36 -110 -45 -52 -16 -60 -23 -112 -97 l-57 -80 -83
-28 c-46 -16 -84 -27 -86 -26 -1 2 40 26 91 55 l92 53 55 99 c53 96 56 99 105
115 27 10 75 34 105 54 78 53 157 91 215 106 28 7 51 13 53 13 1 1 26 -11 55
-25z m165 -625 c99 -43 126 -60 177 -109 70 -69 210 -141 316 -163 36 -8 74
-19 84 -26 12 -8 14 -11 4 -8 -9 3 -42 8 -75 13 -109 13 -247 75 -332 148 -60
51 -61 52 -188 64 -144 14 -207 0 -424 -95 -70 -31 -123 -63 -160 -95 -30 -27
-64 -51 -75 -53 -11 -2 -63 -10 -115 -19 -52 -9 -106 -19 -119 -22 -60 -17 50
63 179 129 44 23 100 63 135 97 61 59 171 122 307 175 85 34 137 27 286 -36z
m-55 -106 c-18 -2 -48 -2 -65 0 -18 2 -4 4 32 4 36 0 50 -2 33 -4z m687 -213
c8 -5 11 -10 5 -10 -5 0 -17 5 -25 10 -8 5 -10 10 -5 10 6 0 17 -5 25 -10z"/>
<path d="M1723 1150 c-1 -39 1 -47 6 -26 9 41 31 46 31 7 0 -17 5 -31 10 -31
11 0 12 15 3 48 -4 17 -11 22 -24 19 -12 -3 -19 2 -22 17 -2 11 -4 -4 -4 -34z"/>
<path d="M1980 1150 c0 -27 5 -50 10 -50 6 0 10 23 10 50 0 28 -4 50 -10 50
-5 0 -10 -22 -10 -50z"/>
<path d="M2023 1150 c0 -30 2 -43 4 -27 2 15 2 39 0 55 -2 15 -4 2 -4 -28z"/>
<path d="M2443 1150 c0 -30 2 -43 4 -27 2 15 2 39 0 55 -2 15 -4 2 -4 -28z"/>
<path d="M2483 1150 c0 -30 2 -43 4 -27 2 15 2 39 0 55 -2 15 -4 2 -4 -28z"/>
<path d="M3520 1180 c0 -12 -5 -17 -13 -14 -8 3 -20 -2 -27 -11 -18 -21 -2
-50 29 -51 19 -1 21 4 21 47 0 27 -2 49 -5 49 -3 0 -5 -9 -5 -20z m-3 -36 c8
-22 -15 -44 -26 -25 -10 16 -4 41 10 41 5 0 12 -7 16 -16z"/>
<path d="M4030 1180 c0 -13 -5 -17 -14 -14 -19 7 -38 -27 -26 -47 5 -7 18 -15
30 -15 17 -1 20 5 20 47 0 27 -2 49 -5 49 -3 0 -5 -9 -5 -20z m-5 -45 c0 -10
-6 -20 -12 -22 -8 -3 -13 5 -13 22 0 17 5 25 13 23 6 -3 12 -13 12 -23z"/>
<path d="M1490 1145 c0 -45 1 -46 28 -43 24 3 27 7 27 43 0 36 -3 40 -27 43
-27 3 -28 2 -28 -43z m43 20 c1 -5 -6 -11 -15 -13 -11 -2 -18 3 -18 13 0 17
30 18 33 0z m7 -40 c0 -8 -9 -15 -20 -15 -11 0 -20 7 -20 15 0 8 9 15 20 15
11 0 20 -7 20 -15z"/>
<path d="M3808 1183 c6 -2 12 -20 12 -38 0 -18 -6 -36 -12 -38 -7 -3 1 -5 17
-5 17 0 24 2 18 5 -8 2 -13 22 -13 44 0 31 -4 39 -17 38 -11 0 -13 -3 -5 -6z"/>
<path d="M3887 1161 c-22 -37 -21 -41 3 -41 11 0 20 -6 20 -12 0 -10 2 -10 8
-1 9 15 3 83 -7 83 -4 0 -14 -13 -24 -29z m23 -11 c0 -11 -7 -20 -15 -20 -13
0 -14 4 -5 20 6 11 13 20 15 20 3 0 5 -9 5 -20z"/>
<path d="M1570 1135 c0 -19 5 -35 10 -35 6 0 10 16 10 35 0 19 -4 35 -10 35
-5 0 -10 -16 -10 -35z"/>
<path d="M1611 1130 c1 -27 3 -29 6 -10 2 14 11 30 20 37 13 10 13 12 -6 10
-17 -1 -21 -7 -20 -37z"/>
<path d="M1659 1154 c-16 -19 -1 -48 27 -51 15 -2 14 -1 -3 7 -13 5 -23 16
-23 25 0 9 10 20 23 25 15 6 17 9 6 9 -9 1 -22 -6 -30 -15z"/>
<path d="M1841 1118 c1 -29 3 -46 6 -37 2 10 13 19 24 22 30 8 23 61 -8 65
-22 3 -23 0 -22 -50z m39 17 c0 -16 -6 -25 -15 -25 -9 0 -15 9 -15 25 0 16 6
25 15 25 9 0 15 -9 15 -25z"/>
<path d="M1917 1163 c-13 -13 -7 -54 9 -60 24 -9 46 24 33 48 -10 19 -30 25
-42 12z m33 -28 c0 -16 -6 -25 -15 -25 -9 0 -15 9 -15 25 0 16 6 25 15 25 9 0
15 -9 15 -25z"/>
<path d="M2054 1156 c-11 -28 1 -51 26 -53 22 -1 22 -1 3 4 -31 6 -29 23 2 23
27 0 32 9 13 28 -16 16 -37 15 -44 -2z m41 -6 c3 -5 -3 -10 -14 -10 -12 0 -21
5 -21 10 0 6 6 10 14 10 8 0 18 -4 21 -10z"/>
<path d="M2132 1133 c1 -38 1 -38 5 -5 5 40 25 38 35 -4 6 -27 6 -27 5 6 -2
28 -6 36 -24 38 -21 3 -23 -1 -21 -35z"/>
<path d="M2321 1133 c1 -38 1 -38 9 -9 5 16 15 33 22 37 9 6 6 9 -9 9 -20 0
-23 -5 -22 -37z"/>
<path d="M2374 1156 c-10 -26 0 -51 21 -51 16 0 20 7 20 30 0 33 -30 49 -41
21z m36 -21 c0 -16 -6 -25 -15 -25 -9 0 -15 9 -15 25 0 16 6 25 15 25 9 0 15
-9 15 -25z"/>
<path d="M2513 1135 c0 -22 2 -30 4 -17 2 12 2 30 0 40 -3 9 -5 -1 -4 -23z"/>
<path d="M2540 1136 c0 -20 5 -36 10 -36 6 0 10 14 10 31 0 39 22 34 32 -7 6
-27 6 -27 5 6 -2 30 -6 35 -29 38 -26 3 -28 1 -28 -32z"/>
<path d="M2627 1163 c-15 -15 -7 -55 13 -60 22 -6 26 -19 8 -26 -8 -2 -7 -3 2
-3 11 1 16 15 18 49 3 40 0 47 -16 47 -10 0 -22 -3 -25 -7z m33 -28 c0 -16 -6
-25 -15 -25 -9 0 -15 9 -15 25 0 16 6 25 15 25 9 0 15 -9 15 -25z"/>
<path d="M2760 1158 l25 -11 -25 -6 c-34 -9 -32 -35 3 -39 21 -3 27 1 27 17 0
34 -11 51 -34 50 -19 0 -19 -1 4 -11z m15 -38 c-3 -5 -13 -10 -21 -10 -8 0
-12 5 -9 10 3 6 13 10 21 10 8 0 12 -4 9 -10z"/>
<path d="M2812 1140 c14 -41 26 -46 38 -15 15 39 11 55 -4 20 l-13 -30 -8 28
c-4 15 -11 27 -16 27 -4 0 -3 -14 3 -30z"/>
<path d="M2884 1156 c-11 -28 1 -51 26 -53 22 -1 22 -1 3 4 -31 6 -29 23 2 23
27 0 32 9 13 28 -16 16 -37 15 -44 -2z m41 -6 c3 -5 -3 -10 -14 -10 -12 0 -21
5 -21 10 0 6 6 10 14 10 8 0 18 -4 21 -10z"/>
<path d="M2961 1133 c2 -35 2 -35 6 -8 3 16 10 33 16 37 8 5 6 8 -5 8 -14 0
-18 -8 -17 -37z"/>
<path d="M3030 1158 l25 -11 -25 -6 c-34 -9 -32 -35 3 -39 21 -3 27 1 27 17 0
34 -11 51 -34 50 -19 0 -19 -1 4 -11z m15 -38 c-3 -5 -13 -10 -21 -10 -8 0
-12 5 -9 10 3 6 13 10 21 10 8 0 12 -4 9 -10z"/>
<path d="M3087 1163 c-15 -15 -7 -55 13 -60 22 -6 26 -19 8 -26 -8 -2 -7 -3 2
-3 11 1 16 15 18 49 3 40 0 47 -16 47 -10 0 -22 -3 -25 -7z m33 -28 c0 -16 -6
-25 -15 -25 -9 0 -15 9 -15 25 0 16 6 25 15 25 9 0 15 -9 15 -25z"/>
<path d="M3160 1155 c-18 -22 -1 -49 31 -52 19 -1 20 -1 4 4 -34 9 -41 23 -11
23 21 0 27 4 24 17 -4 24 -32 28 -48 8z m40 -5 c0 -5 -9 -10 -21 -10 -11 0
-17 5 -14 10 3 6 13 10 21 10 8 0 14 -4 14 -10z"/>
<path d="M3271 1138 c5 -18 9 -34 9 -36 0 -2 5 0 10 3 6 3 10 16 10 28 1 19 3
18 14 -8 13 -31 20 -27 30 20 6 29 6 30 -7 6 l-14 -23 -7 23 -6 24 -15 -25
c-10 -18 -14 -20 -15 -8 0 9 -4 19 -9 23 -6 3 -6 -7 0 -27z"/>
<path d="M3373 1135 c0 -22 2 -30 4 -17 2 12 2 30 0 40 -3 9 -5 -1 -4 -23z"/>
<path d="M3401 1130 c1 -34 1 -34 8 -6 9 41 28 43 40 4 8 -29 9 -30 10 -8 1
34 -11 49 -37 47 -18 -1 -22 -7 -21 -37z"/>
<path d="M3557 1164 c-13 -13 -7 -55 9 -61 24 -9 51 23 38 45 -12 19 -36 27
-47 16z m40 -20 c8 -21 -13 -42 -28 -27 -13 13 -5 43 11 43 6 0 13 -7 17 -16z"/>
<path d="M3626 1145 c10 -47 17 -51 30 -20 11 26 13 27 14 8 0 -12 5 -25 10
-28 6 -3 10 -5 10 -3 0 2 4 18 9 36 6 20 6 30 0 27 -5 -4 -9 -14 -9 -23 -1
-12 -5 -10 -15 8 l-15 25 -6 -24 -7 -23 -14 23 c-13 24 -13 23 -7 -6z"/>
<path d="M4090 1158 l25 -11 -25 -6 c-34 -9 -32 -35 3 -39 21 -3 27 1 27 17 0
34 -11 51 -34 50 -19 0 -19 -1 4 -11z m15 -38 c-3 -5 -13 -10 -21 -10 -8 0
-12 5 -9 10 3 6 13 10 21 10 8 0 12 -4 9 -10z"/>
<path d="M4146 1134 c12 -28 12 -39 3 -50 -7 -8 -7 -14 -1 -14 5 0 17 18 26
40 19 48 21 78 2 35 l-13 -30 -8 28 c-4 15 -11 27 -16 27 -4 0 -1 -16 7 -36z"/>
<path d="M4214 1158 c-4 -6 0 -16 9 -23 22 -16 21 -22 0 -29 -11 -3 -8 -4 6
-3 31 3 40 27 12 34 -26 7 -27 20 -3 26 15 4 15 5 0 6 -9 0 -20 -4 -24 -11z"/>
<path d="M2248 1133 c7 -3 16 -2 19 1 4 3 -2 6 -13 5 -11 0 -14 -3 -6 -6z"/>
<path d="M2340 938 c-69 -39 -115 -74 -170 -130 -83 -84 -245 -195 -325 -221
-28 -9 -90 -21 -140 -26 -120 -13 -147 -23 -204 -70 -39 -33 -66 -45 -162 -70
-132 -36 -212 -65 -248 -90 -53 -38 -192 -110 -243 -126 -29 -9 -82 -34 -118
-55 -71 -41 -134 -59 -315 -89 -284 -48 -316 -54 -311 -58 4 -5 143 15 286 42
41 7 95 16 120 20 95 13 177 38 231 71 31 19 85 43 120 54 35 10 107 45 159
76 127 75 163 90 312 128 103 27 135 40 170 68 63 51 76 56 179 68 143 17 181
27 317 92 88 42 142 75 177 107 29 28 94 70 156 101 l107 54 108 -17 c60 -9
138 -17 174 -17 36 0 111 -9 167 -19 94 -17 106 -22 155 -63 73 -61 153 -93
271 -108 86 -11 106 -18 158 -51 33 -22 86 -52 117 -68 44 -23 81 -56 162
-148 138 -157 188 -196 324 -253 61 -26 135 -59 165 -74 69 -35 193 -55 376
-60 77 -2 118 -2 90 0 -345 26 -369 31 -565 132 -159 82 -169 89 -265 186 -56
56 -129 140 -164 188 -38 54 -81 100 -109 120 -26 17 -76 54 -111 82 -61 47
-68 50 -170 68 -136 22 -202 49 -272 109 -55 47 -60 49 -172 69 -64 12 -142
20 -174 19 -32 -1 -105 2 -163 5 l-105 7 -95 -53z m370 27 c47 -2 128 -11 180
-20 86 -16 100 -22 146 -61 71 -61 143 -91 272 -113 107 -18 114 -21 174 -68
35 -28 83 -63 107 -79 26 -17 72 -66 111 -119 90 -122 209 -246 282 -295 63
-42 68 -48 21 -28 -61 27 -180 139 -303 287 -30 35 -66 64 -105 83 -33 17 -85
47 -115 68 -48 32 -69 39 -164 54 -132 20 -194 45 -266 107 -53 45 -59 47
-175 68 -70 12 -136 18 -157 15 -21 -4 -66 -1 -100 6 -176 35 -171 35 -291
-25 -68 -34 -130 -74 -165 -106 -32 -29 -73 -59 -92 -66 -19 -8 -61 -28 -92
-44 -32 -16 -58 -27 -58 -24 0 2 44 31 98 65 70 42 114 78 151 121 39 47 77
77 159 125 l107 63 95 -6 c52 -3 133 -7 180 -8z"/>
<path d="M3075 309 l-270 -7 -200 -65 c-272 -89 -277 -91 -336 -131 -29 -19
-95 -49 -147 -67 -52 -18 -89 -35 -83 -37 22 -7 178 51 240 91 79 51 462 182
561 191 36 4 183 11 328 15 l264 8 66 -28 c37 -15 110 -40 162 -55 55 -17 120
-44 154 -66 55 -35 196 -86 329 -119 26 -6 46 -13 44 -16 -14 -13 -305 74
-374 113 -48 27 -73 34 -115 34 -29 1 -105 7 -168 14 -63 8 -119 11 -125 8 -5
-3 -151 -9 -325 -13 l-315 -7 -200 -56 c-183 -52 -305 -96 -305 -110 0 -4 335
-6 745 -6 l744 0 4 73 3 72 2 -72 2 -73 273 1 272 1 -95 30 c-52 16 -151 47
-220 69 -77 23 -144 51 -175 72 -27 19 -77 42 -110 51 -33 9 -108 35 -166 57
-72 26 -121 38 -150 37 -24 -1 -165 -5 -314 -9z"/>
</g>
</svg>
